<mxfile host="app.diagrams.net" modified="2024-03-22T16:47:32.825Z" agent="Mozilla/5.0 (Windows NT 10.0; Win64; x64) AppleWebKit/537.36 (KHTML, like Gecko) Chrome/122.0.0.0 Safari/537.36 Edg/122.0.0.0" version="24.0.8" etag="hTeIb3aC-O2KLyXle-8m" type="github">
  <diagram name="PÃ¡gina-1" id="NOkSRE086sEWrlVN_U_U">
    <mxGraphModel>
      <root>
        <mxCell id="0" />
        <mxCell id="1" parent="0" />
      </root>
    </mxGraphModel>
  </diagram>
</mxfile>
